<?xml version="1.0" encoding="iso-8859-1"?>
<!-- Generator: Adobe Illustrator 20.1.0, SVG Export Plug-In . SVG Version: 6.00 Build 0)  -->
<svg version="1.1" id="Layer_1" xmlns="http://www.w3.org/2000/svg" xmlns:xlink="http://www.w3.org/1999/xlink" x="0px" y="0px"
	 viewBox="0 0 560 560" style="enable-background:new 0 0 560 560;" xml:space="preserve">
<path style="fill:#4F6F18;" d="M422.904,277.366c-0.057-0.769,0.914-0.828,0.483-1.771c-0.435-0.907-0.857-1.453-1.871-2.176
	c-1.014-0.709-1.761-0.863-1.268-2.412c0.455-1.563-0.626-0.735-1.134-2.61c-0.484-1.892,0.114-1.754-0.316-2.864
	c-0.478-1.116-2.149-3.512-2.149-3.512s-1.45-2.031-2.445-2.911c-1.034-0.916-2.996-1.964-2.996-1.964l-3.805-39.566
	c0,0-0.938,0.449-1.737-0.478c-0.818-0.916-0.665-1.503-2.364-0.816c-1.699,0.652-1.981,2.212-3.775,0.988
	c-1.785-1.233-2.57-1.403-4.36-2.455c-1.794-1.036-2.737-0.62-4.69-1.432c-1.962-0.864-2.79-1.771-3.589-2.479
	c-0.809-0.711-3.03-2.327-3.795-2.671c-0.799-0.329-1.574-0.289-2.445,0.895c-0.9,1.212-3.192,1.711-4.513,1.606
	c-1.355-0.113-2.791-2.138-2.791-2.138s-1.924,0.112-2.445,1.274c-0.498,1.16-0.881,1.809-2.771,1.505
	c-1.962-0.284-3.231-2.307-4.302-0.907c-1.077,1.418-1.043,1.797-1.977,2.222c-0.952,0.439-1.215-0.53-1.89,0.692
	c-0.709,1.183-3.144,2.26-4.293,2.338c-1.134,0.062-1.713,0.105-2.293-0.26c-0.612-0.346-1.196-0.683-1.985-1.026
	c-0.79-0.329-2.011-1.804-2.704-0.639c-0.694,1.2-0.627,2.558-1.412,2.386c-0.775-0.131-3.106-0.208-3.522-1.331
	c-0.464-1.125,0.589-2.716-1.622-1.229c-2.215,1.47-3.393,1.141-3.125,2.481c0.292,1.319,0.211,3.415-1,2.532
	c-1.182-0.881-2.13-0.64-1.837-2.389c0.277-1.733,0.742-3.314-0.914-2.259c-1.661,1.08-1.613,2.212-3.326,2.116
	c-1.751-0.066-1.794-1.036-2.397-1.572c-0.622-0.544-1.819-1.437-1.819-1.437s-2.034-2.374-2.728-0.604
	c-0.67,1.764,0.393,3.405-1.713,3.336c-2.111-0.076-5.011-0.267-4.694-1.441c0.306-1.179,2.283-0.511,0.081-1.937
	c-2.192-1.417-1.742-0.439-2.426-2.136c-0.665-1.708-2.168-1.215-2.168-1.215s-0.388-0.09-1.058-1.088
	c-0.603-1.021-1.369-0.892-1.981-2.009c-0.665-1.102-2.039-1.417-3.364-1.508c-1.354-0.136-3.053,0.146-4.585,0.406
	c-1.522,0.31-1.268,1.25-4.556,1.042c-3.288-0.188-5.025-0.871-5.269-1.424c-0.22-0.551-0.368,0.046-1.196-1.269
	c-0.838-1.27-1.125-2.983-2.312-3.309c-0.282-0.082-0.34-0.113-0.34-0.155c-0.115,0.043-0.632,0.224-2.709,0.516
	c-4.364,0.632-4.752,1.028-6.303,0.556c-1.58-0.504-4.12-1.314-4.12-1.314l-4.465-1.649l-1.895-52.905l-40.779,1.011
	c15.822-6.005,32.896-9.425,50.876-9.425c39.75,0,75.642,16.068,101.69,41.998c25.646,25.59,41.549,60.656,42.051,99.549
	C423.296,277.879,422.937,277.654,422.904,277.366 M418.979,316.414c-0.928-0.841-1.531-1.875-1.273-2.613
	c0.301-0.935,0.267-1.708,1.182-2.331c0.44-0.303,1.033-0.52,1.593-0.78C420.037,312.634,419.477,314.539,418.979,316.414
	 M381.694,381.404c-10.935,10.911-23.703,19.938-37.667,26.896c-0.512-0.962-1.268-1.801-1.34-2.995
	c-0.062-1.334-0.259-4.736,0.024-6.309c0.287-1.53,0.201-3.47,0.143-4.197c-0.033-0.787,0.254-2.336,0.192-3.562
	c-0.062-1.248,1.551-3.23,0.771-3.216c-0.771,0.064-3.173,1.339-3.24,3.348c-0.105,2.038,1.158,4.042-0.115,4.887
	c-1.316,0.873-4.877,1.997-4.59,0.269c0.273-1.725,0.426-2.028,0.948-3.505c0.488-1.446,0.445-2.141,0.388-3.078
	c-0.062-0.959-0.124-2.467,1.182-2.78c1.335-0.246,2.072-1.038,2.805-1.286c0.77-0.229,2.297-0.308,2.297-0.308
	s1.829-4.894,2.139-6.046c0.331-1.179,0.651-2.324-0.349-3.035c-1-0.738-1.254-1.851-2.427-1.804
	c-1.148,0.084-1.55-0.463-0.229-0.919c1.326-0.472,3.641-0.014,3.641-0.014l1.953,0.647l3.57-7.845l-2.268,0.308
	c0,0-0.838,1.954-2.043,1.453c-1.173-0.532-2.178-1.424-1.063-2.05c1.115-0.639,1.259-1.215,2.187-1.658
	c0.971-0.427,2.532,0.064,2.847-0.73c0.34-0.771,0.847-2.162,0.847-2.162s1.115-0.633,1.154,0.133
	c0.053,0.773-0.029,2.675-0.029,2.675s0.794,0.724,1.336,0.113c0.564-0.596,0.909-1.186,1.048-1.959
	c0.158-0.78,0.613-2.541,0.01-3.068c-0.589-0.549-3.168-2.291-1.666-2.205c1.531,0.119,4.039-0.243,4.456,0.537
	c0.436,0.728,0.301,1.87,1.244,1.82c0.981-0.047,2.288-0.517,2.642-1.114c0.354-0.587,2.02-1.243,0.469-1.933
	c-1.579-0.673-3.35-1.356-3.608-2.281c-0.221-0.943-0.905-2.627-0.905-2.627s1.709-0.46,2.723,0.432
	c1.005,0.88,1.408,1.081,2.144,0.828c0.756-0.208,0.512-0.986,2.048-1.26c1.488-0.289,1.488-0.864,2.091,0.06
	c0.646,0.952,0.852,1.117,1.613,1.043c0.775-0.024,0.574-0.198,1.885-0.864c1.283-0.639,2.943-1.503,3.542-1.706
	c0.555-0.245,5.977-2.827,6.901-3.283c0.943-0.424,4.953-3.507,4.953-3.507s3.13-2.68,4.016-4.073
	c0.885-1.372,3.948-4.641,5.231-5.669c1.283-1.019,2.416-1.847,3.154-2.458c0.713-0.597,2.139-2.613,0.411-2.696
	c-1.737-0.089-2.349-0.46-2.589-1.582c-0.273-1.117-1.019-1.081-2-1.618c-0.976-0.508-1.794-1.224-1.469-1.823
	c0.354-0.597,1.469-1.616,2.005-2.05c0.565-0.379,2.465-0.499,3.939-1.345c1.498-0.829,3.058-0.544,1.966,0.639
	c-1.082,1.226-0.598,3.094,0.555,3.042c1.158-0.059,2.613-1.486,2.489-0.124c-0.1,1.352-0.029,2.484-0.029,2.484
	s1.497-0.286,3.144-1.74c1.641-1.398,6.556-3.03,7.451-3.849c0.679-0.598,2.723-1.377,3.709-1.742
	C411.562,342.875,398.87,364.303,381.694,381.404 M280.005,423.43c-39.744,0-75.608-16.03-101.694-42.026
	c-25.307-25.24-41.066-59.79-41.941-98.082c0.862,0.446,1.642,0.999,2.015,1.539c0.627,0.94,1.914,0.09,1.641,2.028
	c-0.277,1.911,1.737,3.526,2.938,4.424c1.211,0.871,1.402,1.427,2.273,2.558c0.814,1.088,1.933,3.517,3.484,4.178
	c1.561,0.685,3.317,0.59,4.882,1.081c1.546,0.477,2.46,0.036,3.91,1.486c1.426,1.444,1.062,1.641,1.516,3.181
	c0.45,1.512,0.484,1.681,0.598,3.407c0.053,1.716-0.081,2.296,0.756,3.584c0.862,1.305,1.727,3.169,3.139,4.586
	c1.426,1.46,1.828,4.889,1.9,6.201c0.067,1.342-0.886,1.412,0.938,3.245c1.829,1.787,2.517,3.295,3.159,4.966
	c0.689,1.67,1.077,2.219,3.249,2.9c2.148,0.632,3.23-0.599,4.546,2.009c1.292,2.627,0.646,1.892,2.8,2.905
	c2.191,1.007,7.059,2.09,9.203,2.538c2.158,0.448,5.848,1.778,6.475,2.696c0.617,0.924,0.421,0.535,2.967,1.582
	c2.551,0.976,1.656,1.976,3.188,2.097c1.565,0.115,2.838-0.933,3.915-2.097c1.086-1.264,2.436-0.95,3.738-1.587
	c1.311-0.645,3.34-1.911,3.436-3.632c0.101-1.727,0.804-6.371,2.091-7.198c1.292-0.857,2.225-1.272,2.948-2.48
	c0.665-1.2,0.325-0.959,1.985-2.219c1.661-1.243,1.235-1.952,2.527-2.61c1.316-0.666,0.555-0.418,4.058,0.525
	c3.493,0.926,0.579-0.014,3.493,0.926c2.938,0.995,2.373,1.04,3.886,0.745c1.503-0.277,1.886-0.484,3.656-0.022
	c1.756,0.472,2.182,0.856,3.676,0.384c1.479-0.468,4.077-2.314,5.154-0.484c1.029,1.885,0.497,2.279,2.067,3.145
	c1.594,0.854,3.091-0.165,4.106,1.494c1.077,1.649,1.077,1.649,2.321,2.927c1.206,1.265,3.551,2.093,4.398,3.388
	c0.814,1.279,0.929,2.799,2.512,3.865c1.632,1.045,2.934,0.974,3.604,2.641c0.708,1.692,1.598,7.774,2.436,8.681
	c0.794,0.932,1.177,0.519,2.269,2.956c1.12,2.402,1.158,3.18,2.407,5.387c1.283,2.233,2.326,3.525,2.402,4.851
	c0.062,1.315,0.67,1.883,2.249,2.717c1.594,0.885,3.029,2.718,4.379,2.649c1.331-0.083,2.791-1.517,3.485,0.38
	c0.679,1.883,0.775,3.975,2.483,6.531c1.675,2.613,1.158,3.588,1.574,4.13c0.402,0.582,1.934,0.289,2.302,3.52
	c0.392,3.221,2.45,5.806,1.713,6.612c-0.708,0.802-1.029,1.57-0.603,2.889c0.483,1.329-0.588,2.515,1.68,5.834
	c2.302,3.319,2.484,3.097,3.383,5.165c0.871,2.057,0.125,2.458,1.225,4.706c1.063,2.243,2.613,2.37,3.331,4.779
	c0.727,2.473-0.852,2.155,4.231,3.405c1.33,0.308,2.455,0.606,3.407,0.861C300.239,422.325,290.265,423.43,280.005,423.43
	 M178.31,178.575c7.963-7.915,16.941-14.799,26.522-20.676l0.842,109.574l-68.764-1.642
	C140.259,231.878,155.42,201.438,178.31,178.575 M254.713,241.31l-11.485-8.301l-11.462,8.301l4.369-13.453l-11.486-8.334h14.185
	l4.393-13.436l4.412,13.436h14.174l-11.499,8.334L254.713,241.31L254.713,241.31z M280.005,110.5
	C186.13,110.514,110.039,186.384,110,280.021c0.039,93.595,76.13,169.479,170.005,169.479c93.88,0,169.985-75.884,169.995-169.479
	C449.99,186.384,373.885,110.514,280.005,110.5"/>
<path style="fill:#4F6F18;" d="M1130.318,272.376c-0.45-0.245-0.809-0.47-0.842-0.759 M1125.551,310.666
	c-0.928-0.841-1.531-1.875-1.273-2.613c0.301-0.935,0.267-1.708,1.182-2.331c0.44-0.303,1.033-0.52,1.593-0.78
	C1126.609,306.886,1126.049,308.79,1125.551,310.666 M1127.054,304.942l2.422-33.324c-0.057-0.769,0.914-0.828,0.483-1.771
	c-0.435-0.907-0.857-1.453-1.871-2.176c-1.014-0.709-1.761-0.864-1.268-2.412c0.455-1.563-0.627-0.735-1.134-2.61
	c-0.484-1.892,0.114-1.754-0.316-2.864c-0.478-1.116-2.149-3.512-2.149-3.512s-1.45-2.03-2.445-2.911
	c-1.034-0.916-2.996-1.964-2.996-1.964l-3.805-39.566c0,0-0.938,0.449-1.737-0.478c-0.818-0.916-0.665-1.503-2.364-0.816
	c-1.699,0.652-1.981,2.213-3.775,0.988c-1.785-1.233-2.57-1.403-4.36-2.455c-1.794-1.036-2.737-0.62-4.69-1.432
	c-1.962-0.864-2.79-1.771-3.589-2.479c-0.809-0.711-3.03-2.327-3.795-2.671c-0.799-0.329-1.574-0.289-2.445,0.895
	c-0.9,1.212-3.192,1.711-4.513,1.606c-1.354-0.113-2.791-2.138-2.791-2.138s-1.924,0.112-2.445,1.274
	c-0.498,1.16-0.881,1.809-2.771,1.506c-1.962-0.284-3.231-2.307-4.302-0.907c-1.077,1.418-1.043,1.797-1.976,2.222
	c-0.952,0.439-1.215-0.53-1.89,0.692c-0.709,1.183-3.144,2.26-4.293,2.338c-1.134,0.062-1.713,0.105-2.293-0.26
	c-0.612-0.346-1.196-0.683-1.985-1.026c-0.79-0.329-2.011-1.804-2.704-0.639c-0.694,1.2-0.627,2.558-1.412,2.386
	c-0.775-0.131-3.106-0.208-3.522-1.331c-0.464-1.125,0.589-2.716-1.622-1.229c-2.215,1.47-3.393,1.141-3.125,2.481
	c0.292,1.319,0.211,3.415-1,2.532c-1.182-0.881-2.13-0.64-1.837-2.389c0.277-1.733,0.742-3.314-0.914-2.259
	c-1.661,1.08-1.613,2.212-3.326,2.116c-1.751-0.066-1.794-1.036-2.397-1.572c-0.622-0.544-1.819-1.437-1.819-1.437
	s-2.034-2.374-2.728-0.604c-0.67,1.764,0.393,3.405-1.713,3.336c-2.111-0.076-5.011-0.267-4.694-1.441
	c0.306-1.179,2.283-0.511,0.081-1.937c-2.192-1.418-1.742-0.439-2.426-2.136c-0.665-1.708-2.167-1.215-2.167-1.215
	s-0.388-0.09-1.058-1.088c-0.603-1.021-1.369-0.892-1.981-2.009c-0.665-1.102-2.039-1.417-3.364-1.508
	c-1.354-0.136-3.053,0.146-4.585,0.406c-1.522,0.31-1.268,1.25-4.556,1.042c-3.288-0.188-5.025-0.871-5.269-1.424
	c-0.22-0.551-0.368,0.046-1.196-1.269c-0.838-1.27-1.125-2.983-2.312-3.309c-0.282-0.081-0.34-0.113-0.34-0.155
	c-0.115,0.043-0.632,0.224-2.709,0.516c-4.364,0.632-4.752,1.028-6.302,0.556c-1.58-0.504-4.12-1.314-4.12-1.314l-4.465-1.649
	l-1.895-52.905l-40.779,1.011l-24.296,0.99l0.842,120.481l-80.236-3.45c-1.67,3.038,3.42,5.806,6.322,9.647
	c3.305,4.375,4.608,9.652,4.608,9.652c0.862,0.446,1.642,0.999,2.015,1.539c0.627,0.94,1.914,0.09,1.641,2.028
	c-0.277,1.911,1.737,3.526,2.938,4.424c1.211,0.871,1.402,1.427,2.273,2.558c0.814,1.088,1.933,3.517,3.484,4.178
	c1.561,0.684,3.317,0.589,4.882,1.081c1.545,0.477,2.46,0.036,3.91,1.486c1.426,1.444,1.062,1.641,1.517,3.181
	c0.45,1.512,0.484,1.682,0.598,3.407c0.053,1.716-0.081,2.296,0.756,3.584c0.862,1.305,1.727,3.169,3.139,4.586
	c1.426,1.46,1.828,4.889,1.9,6.201c0.067,1.342-0.886,1.412,0.938,3.245c1.829,1.787,2.517,3.295,3.159,4.966
	c0.689,1.67,1.077,2.219,3.25,2.9c2.148,0.632,3.23-0.599,4.546,2.009c1.292,2.627,0.646,1.892,2.8,2.904
	c2.191,1.007,7.059,2.09,9.203,2.538c2.158,0.448,5.848,1.778,6.475,2.696c0.617,0.924,0.421,0.535,2.967,1.582
	c2.551,0.976,1.656,1.976,3.188,2.097c1.565,0.115,2.838-0.933,3.915-2.097c1.086-1.265,2.436-0.95,3.738-1.587
	c1.311-0.645,3.34-1.911,3.436-3.632c0.1-1.727,0.804-6.371,2.091-7.198c1.292-0.857,2.225-1.272,2.948-2.48
	c0.665-1.2,0.325-0.959,1.985-2.219c1.661-1.243,1.235-1.952,2.527-2.61c1.316-0.666,0.555-0.418,4.058,0.525
	c3.493,0.926,0.579-0.014,3.493,0.926c2.938,0.995,2.373,1.04,3.886,0.745c1.503-0.277,1.886-0.484,3.656-0.022
	c1.756,0.472,2.182,0.856,3.676,0.384c1.479-0.468,4.078-2.314,5.154-0.484c1.029,1.885,0.497,2.279,2.067,3.145
	c1.594,0.854,3.091-0.165,4.106,1.494c1.077,1.649,1.077,1.649,2.321,2.927c1.206,1.265,3.551,2.093,4.398,3.388
	c0.814,1.279,0.929,2.799,2.512,3.865c1.632,1.045,2.934,0.974,3.604,2.641c0.708,1.692,1.598,7.774,2.436,8.681
	c0.794,0.932,1.177,0.519,2.269,2.956c1.12,2.402,1.158,3.18,2.407,5.387c1.283,2.233,2.326,3.525,2.402,4.851
	c0.062,1.315,0.67,1.883,2.249,2.717c1.594,0.885,3.029,2.718,4.379,2.649c1.331-0.083,2.791-1.517,3.485,0.38
	c0.679,1.883,0.775,3.975,2.483,6.531c1.675,2.613,1.158,3.588,1.575,4.13c0.402,0.582,1.934,0.289,2.302,3.52
	c0.392,3.221,2.45,5.806,1.713,6.612c-0.708,0.802-1.029,1.57-0.603,2.889c0.483,1.329-0.588,2.515,1.68,5.834
	c2.302,3.319,2.484,3.097,3.383,5.165c0.871,2.057,0.125,2.458,1.225,4.706c1.063,2.243,2.613,2.37,3.331,4.779
	c0.727,2.473-0.852,2.155,4.231,3.405c1.33,0.308,2.455,0.606,3.407,0.861l16.289,4.367l13.738,1.862l4.779-3.503
	c-0.512-0.962-1.919-16.505-1.99-17.698c-0.062-1.334-0.259-4.736,0.024-6.309c0.287-1.53,0.201-3.47,0.143-4.197
	c-0.033-0.787,0.254-2.336,0.192-3.562c-0.062-1.248,1.551-3.23,0.771-3.216c-0.771,0.065-3.172,1.339-3.24,3.348
	c-0.105,2.038,1.158,4.042-0.115,4.887c-1.316,0.873-4.877,1.997-4.59,0.269c0.273-1.725,0.426-2.028,0.948-3.505
	c0.488-1.446,0.445-2.141,0.388-3.078c-0.062-0.959-0.124-2.467,1.182-2.78c1.336-0.246,2.072-1.038,2.805-1.286
	c0.771-0.229,2.297-0.308,2.297-0.308s1.829-4.894,2.139-6.046c0.33-1.179,0.651-2.324-0.349-3.035
	c-1-0.738-1.254-1.851-2.427-1.804c-1.148,0.084-1.551-0.463-0.229-0.919c1.326-0.472,3.641-0.014,3.641-0.014l1.953,0.647
	l3.57-7.845l-2.268,0.308c0,0-0.838,1.954-2.043,1.453c-1.173-0.532-2.177-1.424-1.063-2.05c1.115-0.639,1.259-1.215,2.187-1.658
	c0.971-0.427,2.532,0.065,2.847-0.73c0.34-0.771,0.847-2.162,0.847-2.162s1.115-0.633,1.154,0.133
	c0.052,0.773-0.029,2.675-0.029,2.675s0.794,0.724,1.336,0.113c0.564-0.597,0.909-1.186,1.048-1.959
	c0.158-0.78,0.613-2.541,0.01-3.068c-0.589-0.549-3.168-2.291-1.666-2.205c1.531,0.119,4.039-0.243,4.456,0.537
	c0.436,0.728,0.301,1.87,1.244,1.82c0.981-0.047,2.288-0.517,2.642-1.114c0.354-0.587,2.02-1.243,0.469-1.933
	c-1.579-0.673-3.35-1.356-3.608-2.281c-0.221-0.943-0.905-2.627-0.905-2.627s1.709-0.46,2.723,0.432
	c1.005,0.88,1.407,1.081,2.144,0.828c0.756-0.208,0.512-0.986,2.048-1.26c1.488-0.289,1.488-0.864,2.091,0.06
	c0.646,0.952,0.852,1.117,1.613,1.043c0.776-0.024,0.574-0.198,1.885-0.864c1.283-0.639,2.943-1.503,3.542-1.706
	c0.555-0.245,5.977-2.827,6.901-3.283c0.943-0.424,4.953-3.507,4.953-3.507s3.13-2.68,4.016-4.073
	c0.885-1.372,3.948-4.641,5.231-5.669c1.283-1.019,2.416-1.846,3.154-2.458c0.713-0.597,2.139-2.613,0.411-2.696
	c-1.737-0.089-2.349-0.46-2.589-1.582c-0.273-1.117-1.019-1.081-2-1.618c-0.976-0.508-1.794-1.224-1.469-1.822
	c0.354-0.597,1.469-1.616,2.005-2.05c0.565-0.379,2.465-0.499,3.939-1.345c1.498-0.829,3.058-0.544,1.966,0.639
	c-1.082,1.226-0.598,3.094,0.555,3.042c1.158-0.059,2.613-1.486,2.489-0.124c-0.1,1.353-0.029,2.484-0.029,2.484
	s1.497-0.286,3.144-1.74c1.641-1.398,6.556-3.03,7.451-3.849c0.679-0.598,2.723-1.377,3.709-1.742 M961.285,235.561L949.8,227.26
	l-11.462,8.301l4.369-13.453l-11.486-8.334h14.185l4.393-13.436l4.412,13.436h14.174l-11.5,8.334L961.285,235.561L961.285,235.561z"
	/>
<path style="fill:#4F6F18;" d="M1821.318,272.376c-0.45-0.245-0.809-0.47-0.842-0.759 M1816.551,310.666
	c-0.928-0.841-1.531-1.875-1.273-2.613c0.301-0.935,0.267-1.708,1.182-2.331c0.44-0.303,1.033-0.52,1.593-0.78
	C1817.609,306.886,1817.049,308.79,1816.551,310.666 M1818.054,304.942l2.422-33.324c-0.057-0.769,0.914-0.828,0.483-1.771
	c-0.435-0.907-0.857-1.453-1.871-2.176c-1.014-0.709-1.761-0.864-1.268-2.412c0.455-1.563-0.627-0.735-1.134-2.61
	c-0.484-1.892,0.114-1.754-0.316-2.864c-0.478-1.116-2.149-3.512-2.149-3.512s-1.45-2.03-2.445-2.911
	c-1.034-0.916-2.996-1.964-2.996-1.964l-3.805-39.566c0,0-0.938,0.449-1.737-0.478c-0.818-0.916-0.665-1.503-2.364-0.816
	c-1.699,0.652-1.981,2.213-3.775,0.988c-1.785-1.233-2.57-1.403-4.36-2.455c-1.794-1.036-2.737-0.62-4.69-1.432
	c-1.962-0.864-2.79-1.771-3.589-2.479c-0.809-0.711-3.03-2.327-3.795-2.671c-0.799-0.329-1.574-0.289-2.445,0.895
	c-0.9,1.212-3.192,1.711-4.513,1.606c-1.354-0.113-2.791-2.138-2.791-2.138s-1.924,0.112-2.445,1.274
	c-0.498,1.16-0.881,1.809-2.771,1.506c-1.962-0.284-3.231-2.307-4.302-0.907c-1.077,1.418-1.043,1.797-1.976,2.222
	c-0.952,0.439-1.215-0.53-1.89,0.692c-0.709,1.183-3.144,2.26-4.293,2.338c-1.134,0.062-1.713,0.105-2.293-0.26
	c-0.612-0.346-1.196-0.683-1.985-1.026c-0.79-0.329-2.011-1.804-2.704-0.639c-0.694,1.2-0.627,2.558-1.412,2.386
	c-0.775-0.131-3.106-0.208-3.522-1.331c-0.464-1.125,0.589-2.716-1.622-1.229c-2.215,1.47-3.393,1.141-3.125,2.481
	c0.292,1.319,0.211,3.415-1,2.532c-1.182-0.881-2.13-0.64-1.837-2.389c0.277-1.733,0.742-3.314-0.914-2.259
	c-1.661,1.08-1.613,2.212-3.326,2.116c-1.751-0.066-1.794-1.036-2.397-1.572c-0.622-0.544-1.819-1.437-1.819-1.437
	s-2.034-2.374-2.728-0.604c-0.67,1.764,0.393,3.405-1.713,3.336c-2.111-0.076-5.011-0.267-4.694-1.441
	c0.306-1.179,2.283-0.511,0.081-1.937c-2.192-1.418-1.742-0.439-2.426-2.136c-0.665-1.708-2.168-1.215-2.168-1.215
	s-0.388-0.09-1.058-1.088c-0.603-1.021-1.369-0.892-1.981-2.009c-0.665-1.102-2.039-1.417-3.364-1.508
	c-1.354-0.136-3.053,0.146-4.585,0.406c-1.522,0.31-1.268,1.25-4.556,1.042c-3.288-0.188-5.025-0.871-5.269-1.424
	c-0.22-0.551-0.368,0.046-1.196-1.269c-0.838-1.27-1.125-2.983-2.312-3.309c-0.282-0.081-0.34-0.113-0.34-0.155
	c-0.115,0.043-0.632,0.224-2.709,0.516c-4.364,0.632-4.752,1.028-6.302,0.556c-1.58-0.504-4.12-1.314-4.12-1.314l-4.465-1.649
	l-1.895-52.905l-40.779,1.011l-24.296,0.99l0.842,120.481l-80.236-3.45c-1.67,3.038,3.42,5.806,6.322,9.647
	c3.305,4.375,4.608,9.652,4.608,9.652c0.862,0.446,1.642,0.999,2.015,1.539c0.627,0.94,1.914,0.09,1.641,2.028
	c-0.277,1.911,1.737,3.526,2.938,4.424c1.211,0.871,1.402,1.427,2.273,2.558c0.814,1.088,1.933,3.517,3.484,4.178
	c1.561,0.684,3.317,0.589,4.882,1.081c1.546,0.477,2.46,0.036,3.91,1.486c1.426,1.444,1.062,1.641,1.516,3.181
	c0.45,1.512,0.484,1.682,0.598,3.407c0.052,1.716-0.081,2.296,0.756,3.584c0.862,1.305,1.728,3.169,3.139,4.586
	c1.426,1.46,1.828,4.889,1.9,6.201c0.067,1.342-0.885,1.412,0.938,3.245c1.829,1.787,2.517,3.295,3.159,4.966
	c0.689,1.67,1.077,2.219,3.25,2.9c2.148,0.632,3.23-0.599,4.546,2.009c1.292,2.627,0.646,1.892,2.8,2.904
	c2.191,1.007,7.059,2.09,9.203,2.538c2.158,0.448,5.848,1.778,6.475,2.696c0.617,0.924,0.421,0.535,2.966,1.582
	c2.551,0.976,1.656,1.976,3.188,2.097c1.565,0.115,2.838-0.933,3.915-2.097c1.086-1.265,2.436-0.95,3.738-1.587
	c1.311-0.645,3.34-1.911,3.436-3.632c0.101-1.727,0.804-6.371,2.091-7.198c1.292-0.857,2.226-1.272,2.948-2.48
	c0.665-1.2,0.325-0.959,1.985-2.219c1.661-1.243,1.235-1.952,2.527-2.61c1.316-0.666,0.555-0.418,4.058,0.525
	c3.493,0.926,0.579-0.014,3.493,0.926c2.938,0.995,2.373,1.04,3.886,0.745c1.502-0.277,1.886-0.484,3.656-0.022
	c1.756,0.472,2.182,0.856,3.676,0.384c1.479-0.468,4.078-2.314,5.154-0.484c1.029,1.885,0.497,2.279,2.067,3.145
	c1.594,0.854,3.091-0.165,4.106,1.494c1.077,1.649,1.077,1.649,2.321,2.927c1.206,1.265,3.551,2.093,4.398,3.388
	c0.814,1.279,0.929,2.799,2.512,3.865c1.632,1.045,2.934,0.974,3.604,2.641c0.708,1.692,1.598,7.774,2.436,8.681
	c0.794,0.932,1.177,0.519,2.269,2.956c1.12,2.402,1.158,3.18,2.407,5.387c1.283,2.233,2.326,3.525,2.402,4.851
	c0.062,1.315,0.67,1.883,2.249,2.717c1.594,0.885,3.029,2.718,4.379,2.649c1.331-0.083,2.791-1.517,3.485,0.38
	c0.679,1.883,0.775,3.975,2.483,6.531c1.675,2.613,1.158,3.588,1.574,4.13c0.402,0.582,1.934,0.289,2.302,3.52
	c0.392,3.221,2.45,5.806,1.713,6.612c-0.708,0.802-1.029,1.57-0.603,2.889c0.483,1.329-0.588,2.515,1.68,5.834
	c2.302,3.319,2.484,3.097,3.383,5.165c0.871,2.057,0.125,2.458,1.225,4.706c1.063,2.243,2.613,2.37,3.331,4.779
	c0.727,2.473-0.852,2.155,4.231,3.405c1.33,0.308,2.455,0.606,3.407,0.861l16.289,4.367l13.738,1.862l4.779-3.503
	c-0.512-0.962-1.919-16.505-1.99-17.698c-0.062-1.334-0.259-4.736,0.024-6.309c0.287-1.53,0.201-3.47,0.143-4.197
	c-0.033-0.787,0.254-2.336,0.192-3.562c-0.062-1.248,1.551-3.23,0.771-3.216c-0.771,0.065-3.172,1.339-3.24,3.348
	c-0.105,2.038,1.158,4.042-0.115,4.887c-1.316,0.873-4.877,1.997-4.59,0.269c0.273-1.725,0.426-2.028,0.948-3.505
	c0.488-1.446,0.445-2.141,0.388-3.078c-0.062-0.959-0.124-2.467,1.182-2.78c1.336-0.246,2.072-1.038,2.805-1.286
	c0.771-0.229,2.297-0.308,2.297-0.308s1.829-4.894,2.139-6.046c0.33-1.179,0.651-2.324-0.349-3.035
	c-1-0.738-1.254-1.851-2.427-1.804c-1.148,0.084-1.551-0.463-0.229-0.919c1.326-0.472,3.641-0.014,3.641-0.014l1.953,0.647
	l3.57-7.845l-2.268,0.308c0,0-0.838,1.954-2.043,1.453c-1.173-0.532-2.177-1.424-1.063-2.05c1.115-0.639,1.259-1.215,2.187-1.658
	c0.971-0.427,2.532,0.065,2.847-0.73c0.34-0.771,0.847-2.162,0.847-2.162s1.115-0.633,1.154,0.133
	c0.052,0.773-0.029,2.675-0.029,2.675s0.794,0.724,1.336,0.113c0.564-0.597,0.909-1.186,1.048-1.959
	c0.158-0.78,0.613-2.541,0.01-3.068c-0.589-0.549-3.168-2.291-1.666-2.205c1.531,0.119,4.039-0.243,4.456,0.537
	c0.436,0.728,0.301,1.87,1.244,1.82c0.981-0.047,2.288-0.517,2.642-1.114c0.354-0.587,2.02-1.243,0.469-1.933
	c-1.579-0.673-3.35-1.356-3.608-2.281c-0.221-0.943-0.905-2.627-0.905-2.627s1.709-0.46,2.723,0.432
	c1.005,0.88,1.407,1.081,2.144,0.828c0.756-0.208,0.512-0.986,2.048-1.26c1.488-0.289,1.488-0.864,2.091,0.06
	c0.646,0.952,0.852,1.117,1.613,1.043c0.776-0.024,0.574-0.198,1.885-0.864c1.283-0.639,2.943-1.503,3.542-1.706
	c0.555-0.245,5.977-2.827,6.901-3.283c0.943-0.424,4.953-3.507,4.953-3.507s3.13-2.68,4.016-4.073
	c0.885-1.372,3.948-4.641,5.231-5.669c1.283-1.019,2.416-1.846,3.154-2.458c0.713-0.597,2.139-2.613,0.411-2.696
	c-1.737-0.089-2.349-0.46-2.589-1.582c-0.273-1.117-1.019-1.081-2-1.618c-0.976-0.508-1.794-1.224-1.469-1.822
	c0.354-0.597,1.469-1.616,2.005-2.05c0.565-0.379,2.465-0.499,3.939-1.345c1.498-0.829,3.058-0.544,1.966,0.639
	c-1.082,1.226-0.598,3.094,0.555,3.042c1.158-0.059,2.613-1.486,2.489-0.124c-0.1,1.353-0.029,2.484-0.029,2.484
	s1.497-0.286,3.144-1.74c1.641-1.398,6.556-3.03,7.451-3.849c0.679-0.598,2.723-1.377,3.709-1.742"/>
</svg>
